<svg xmlns="http://www.w3.org/2000/svg" xmlns:xlink="http://www.w3.org/1999/xlink" fill="none" version="1.1" width="32" height="36" viewBox="0 0 32 36"><g><g><path d="M1.832889098781056e-15,6.06667L-5.821020901218945e-15,32.688199999999995C-6.034523901218945e-15,33.8504,1.4344499999999942,34.399,2.210049999999994,33.5334L7.627389999999994,27.4873C8.475419999999994,26.5408,9.686169999999995,26,10.956999999999995,26L26.933299999999992,26C29.731599999999993,26,31.999999999999993,23.7316,31.999999999999993,20.9333L31.999999999999993,6.06667C31.999999999999993,3.26842,29.731599999999993,1,26.933299999999992,1L5.066669999999994,1C2.268419999999994,0.9999999999999997,2.0042290987810553e-15,3.26842,1.832889098781056e-15,6.06667Z" fill="#EFE7F6" fill-opacity="1"/></g><g><path d="M15.744,10.256C14.368,12.128,11.6,13.744,8.56,14.736C8.864,15.008,9.312,15.616,9.504,15.952C10.656,15.536,11.76,15.056,12.768,14.496L12.768,15.104L19.311999999999998,15.104L19.311999999999998,14.304C20.384,14.8647,21.503999999999998,15.3772,22.576,15.7455C22.816000000000003,15.3452,23.296,14.7205,23.631999999999998,14.4163C21.183999999999997,13.728,18.336,12.3827,16.784,11.2615L17.119999999999997,10.829L15.744,10.256ZM13.856,13.84C14.623999999999999,13.328,15.328,12.784,15.952,12.176C16.624000000000002,12.704,17.503999999999998,13.28,18.48,13.84L13.856,13.84ZM11.312,16.208L11.312,21.3643L12.768,21.3643L12.768,20.768L19.247999999999998,20.768L19.247999999999998,21.2997L20.752000000000002,21.2997L20.752000000000002,16.208L11.312,16.208ZM12.768,19.456L12.768,17.52L19.247999999999998,17.52L19.247999999999998,19.456L12.768,19.456ZM11.072,6.394C10.512,7.904,9.568,9.44,8.496,10.384C8.864,10.592,9.488,10.992,9.776,11.232C10.304,10.672,10.847999999999999,9.952,11.328,9.152L11.92,9.152C12.304,9.824,12.687999999999999,10.624,12.864,11.152L14.208,10.704C14.064,10.288,13.776,9.696,13.456,9.152L15.824,9.152L15.824,7.872L12.032,7.872C12.208,7.51875,12.368,7.14925,12.512,6.77975L11.072,6.394ZM17.472,6.394C17.104,7.67925,16.416,8.944,15.584,9.7445C15.92,9.93675,16.544,10.353,16.816000000000003,10.577C17.168,10.1927,17.52,9.7125,17.84,9.184L18.72,9.184C19.2,9.8245,19.68,10.609,19.872,11.1535L21.28,10.641C21.104,10.2247,20.768,9.6965,20.4,9.184L23.119999999999997,9.184L23.119999999999997,7.904L18.48,7.904C18.64,7.5185,18.8,7.133,18.912,6.7315L17.472,6.394Z" fill="#7D4CED" fill-opacity="1"/></g></g></svg>