<?xml version="1.0" standalone="no"?><!DOCTYPE svg PUBLIC "-//W3C//DTD SVG 1.1//EN" "http://www.w3.org/Graphics/SVG/1.1/DTD/svg11.dtd"><svg t="1718115064997" class="icon" viewBox="0 0 1024 1024" version="1.1" xmlns="http://www.w3.org/2000/svg" p-id="66110" xmlns:xlink="http://www.w3.org/1999/xlink" width="30" height="30"><path d="M830.316 379.715c-62.19 0-124.382-0.096-186.572-0.17 14.256-41.019 21.69-84.317 21.98-127.739a398.927 398.927 0 0 0-5.402-67.968c-2.82-16.972-6.654-33.07-14.993-48.51-15.502-28.705-43.665-49.54-75.763-55.583-37.481-7.058-76.966 6.632-102.082 35.272-11.49 13.1-19.775 28.915-23.985 45.826-4.534 18.211-2.149 36.523-4.125 54.977-4.163 38.886-18.51 76.375-41.402 108.08-19.954 27.636-46.148 50.66-76.165 66.82a223.517 223.517 0 0 1-48.066 19.08 223.624 223.624 0 0 1-24.828 5.157c-5.133 0.765-13.222 2.598-17.263 2.607l-109.565 0.249c-18.2 0.04-36.839-1.766-49.535 14.485-6.963 8.912-7.8 17.913-7.811 28.327-0.084 73.535 0.004 366.58 0.021 439.568 0.002 10.568 0.32 20.575 6.81 29.77 8.637 12.238 21.946 15.86 36.009 15.86h604.046c65.902 0 129.62-33.725 165.712-89.109 13.95-21.409 19.957-44.074 25.553-68.63 6.414-28.142 43.038-182.822 51.9-232.52 6.981-39.165 8.108-83.533-11.036-119.622-22.263-41.968-68.51-56.227-113.438-56.227z m-690.433 113.54l75.38-0.172c-0.049 64.04 1.914 377.073 0 377.073-19.216-0.007-75.38-0.02-75.38-0.035V493.255z m696.963 246.298c-14.181 51.55-44.292 100.482-95.626 121.198-20.386 8.226-44.739 12.96-66.78 9.64-4.8-0.722-318.506-0.148-384.167-0.177h-0.176l0.343-386.317c0-0.732 13.229-3.877 14.746-4.35a295.881 295.881 0 0 0 26.523-9.666 297.835 297.835 0 0 0 47.421-25.152c29.826-19.448 56.116-44.23 77.334-72.82 22.868-30.819 39.955-66.427 49.722-103.123 5.464-20.525 8-41.603 9.101-62.781 0.917-17.62-0.344-35.831 16.843-46.877 14.508-9.323 34.048-6.284 45.214 6.785 8.472 9.916 8.74 22.515 10.578 34.635 6.126 40.407 5.242 81.515-4.062 121.367a321.346 321.346 0 0 1-20.531 60.234c-7.403 16.234-17.341 31.792-9.316 50.206 7.983 18.316 25.192 22.612 43.082 22.631 41.153 0.044 219.004-0.612 233.142 0.681 26.045 2.38 45.99 16.646 50.899 43.038 3.754 20.192 0.378 41.42-3.659 61.316-9.403 46.34-36.905 165.983-40.631 179.532-41.228 149.87 5.982-21.757 0 0z" fill="" p-id="66111"></path></svg>