<?xml version="1.0" standalone="no"?><!DOCTYPE svg PUBLIC "-//W3C//DTD SVG 1.1//EN" "http://www.w3.org/Graphics/SVG/1.1/DTD/svg11.dtd"><svg t="1718115112832" class="icon" viewBox="0 0 1025 1024" version="1.1" xmlns="http://www.w3.org/2000/svg" p-id="70093" xmlns:xlink="http://www.w3.org/1999/xlink" width="30.029296875" height="30"><path d="M876.01894 667.731599h-213.228141A482.236763 482.236763 0 0 1 687.781137 818.952997a484.624918 484.624918 0 0 1-6.14097 80.17378 182.267415 182.267415 0 0 1-17.058252 57.230433 126.231059 126.231059 0 0 1-86.655916 65.588977 123.672322 123.672322 0 0 1-117.104895-42.04859 131.177952 131.177952 0 0 1-27.463784-54.074656 479.678026 479.678026 0 0 1-4.69102-64.821355A271.908525 271.908525 0 0 0 381.500236 733.66174a262.355904 262.355904 0 0 0-87.167664-78.809121 249.562216 249.562216 0 0 0-83.414849-28.57257 193.269987 193.269987 0 0 0-19.70228-3.496942H65.922587c-20.811067 0-42.133881 2.04699-56.633394-17.058251A50.492424 50.492424 0 0 1 0.24832 572.375975V53.975719A58.168637 58.168637 0 0 1 8.095116 18.835721 46.398443 46.398443 0 0 1 49.290792 0.156936h690.859177A226.362994 226.362994 0 0 1 929.923014 105.235764a242.738915 242.738915 0 0 1 29.254901 80.941402c7.335048 33.178299 49.213055 215.616296 59.703879 274.211389a227.812946 227.812946 0 0 1-13.049562 141.071738 137.14834 137.14834 0 0 1-129.813292 66.271306z m-789.797034-133.907272h86.22946c0-75.482762 2.217573-444.70861 0-444.708611H86.221906z m797.302664-290.416728a203.760811 203.760811 0 0 0-109.428681-142.948146 147.212708 147.212708 0 0 0-76.762131-11.343737c-5.45864 0.852913-364.364247 0-439.420553 0v455.5406a129.557418 129.557418 0 0 0 17.058252 5.117476q15.437717 4.946893 30.363687 11.429028a337.326919 337.326919 0 0 1 54.245239 29.681357 349.694151 349.694151 0 0 1 88.788198 86.058878 366.752402 366.752402 0 0 1 56.889268 121.625331 369.99347 369.99347 0 0 1 10.405533 74.032811c1.023495 20.811067 0 42.645628 19.275824 55.268734a39.233978 39.233978 0 0 0 51.686501-8.017378 76.762131 76.762131 0 0 0 12.111359-40.854512 390.292789 390.292789 0 0 0-4.605728-143.118728 386.96643 386.96643 0 0 0-23.455096-71.047617c-8.529126-19.105241-19.872863-37.528153-10.661407-59.192132a47.50723 47.50723 0 0 1 49.298346-26.696163c47.080773 0 250.50042 0.68233 266.705759-0.767621a60.386209 60.386209 0 0 0 58.253928-51.174754 197.790423 197.790423 0 0 0-4.179272-72.326985 7788.456362 7788.456362 0 0 0-46.483734-211.692898c-47.50723-176.297027 6.738009 26.099124-0.085292 0.426456z" fill="#333232" p-id="70094"></path></svg>