<?xml version="1.0" standalone="no"?><!DOCTYPE svg PUBLIC "-//W3C//DTD SVG 1.1//EN" "http://www.w3.org/Graphics/SVG/1.1/DTD/svg11.dtd"><svg t="1718023323851" class="icon" viewBox="0 0 1024 1024" version="1.1" xmlns="http://www.w3.org/2000/svg" p-id="45588" xmlns:xlink="http://www.w3.org/1999/xlink" width="30" height="30"><path d="M657.502 49H314.498C253.472 49 204 98.435 204 159.417V440.06C204 583.62 320.464 700 464.13 700h43.74C651.535 700 768 583.62 768 440.06V159.417C768 98.435 718.528 49 657.502 49z" fill="#bd4b7d" p-id="45589"></path><path d="M831.138 133c41.478 0 75.182 33.302 75.852 74.638l0.01 1.255v62.423c0 72.853-30.566 142.325-84.186 191.521l-1.632 1.485-64.285 57.985c-12.258 11.057-31.155 10.079-42.207-2.184-10.88-12.072-10.103-30.579 1.617-41.7l0.566-0.525 64.284-57.984a200.117 200.117 0 0 0 66.066-146.9l0.007-1.698v-62.423c0-8.706-6.908-15.798-15.539-16.09l-0.553-0.009h-94.253c-16.505 0-29.885-13.385-29.885-29.897 0-16.276 13-29.514 29.18-29.889l0.705-0.008h94.253zM138.862 134c-41.478 0-75.182 33.302-75.852 74.638l-0.01 1.255v62.423c0 72.853 30.566 142.325 84.186 191.521l1.632 1.485 64.285 57.985c12.258 11.057 31.155 10.079 42.207-2.184 10.88-12.072 10.103-30.579-1.617-41.7l-0.566-0.525-64.284-57.984a200.117 200.117 0 0 1-66.066-146.9l-0.007-1.698v-62.423c0-8.706 6.908-15.798 15.539-16.09l0.553-0.009h94.253c16.505 0 29.885-13.385 29.885-29.897 0-16.276-13-29.514-29.18-29.889l-0.705-0.008h-94.253zM484 640c16.332 0 29.616 12.981 29.992 29.136l0.008 0.704v111.32c0 16.48-13.431 29.84-30 29.84-16.332 0-29.616-12.981-29.992-29.136l-0.008-0.704V669.84c0-16.48 13.431-29.84 30-29.84z" fill="#bd4b7d" p-id="45590"></path><path d="M603.94 750H364.06C287.107 750 224 809.395 224 883.62v18.43c0 16.541 13.392 29.95 29.912 29.95h460.176c16.52 0 29.912-13.409 29.912-29.95v-18.43C744 809.395 680.893 750 603.94 750z" fill="#bd4b7d" p-id="45591"></path></svg>