<?xml version="1.0" standalone="no"?><!DOCTYPE svg PUBLIC "-//W3C//DTD SVG 1.1//EN" "http://www.w3.org/Graphics/SVG/1.1/DTD/svg11.dtd"><svg t="1718585065687" class="icon" viewBox="0 0 1024 1024" version="1.1" xmlns="http://www.w3.org/2000/svg" p-id="2856" xmlns:xlink="http://www.w3.org/1999/xlink" width="30" height="30"><path d="M805.441439 263.583919c11.090726 0 20.113203 9.022477 20.113203 20.113203v418.866367c0 11.090726-9.022477 20.113203-20.113203 20.113203H411.021358c-32.790951 0-65.282928 10.852161-91.493369 30.556834l-80.628922 60.620154c4.523525-22.448686-1.190779-45.485082-15.685923-63.220823-14.520742-17.766458-36.009023-27.956165-58.954293-27.956165h-34.585822c-11.090726 0-20.113203-9.022477-20.113204-20.113203V283.697122c0-11.090726 9.022477-20.113203 20.113204-20.113203h675.76841m0-46.438319H129.674053c-36.755435 0-66.550498 29.796087-66.550499 66.551522v418.866367c0 36.755435 29.796087 66.551522 66.550499 66.551522h34.585822c18.780105 0 32.846241 17.210488 29.108036 35.614827l-14.143952 69.633417c-1.963812 12.83645 8.294495 22.868479 19.636073 22.868479 3.56824 0 7.241941-0.992145 10.677076-3.202713l137.897899-103.677604A105.812405 105.812405 0 0 1 411.021358 769.115011h394.421104c36.755435 0 66.550498-29.796087 66.550499-66.551522V283.697122c0-36.755435-29.796087-66.551522-66.551522-66.551522z" fill="" p-id="2857"></path><path d="M247.441343 149.376678c0 12.847713 10.414962 23.262675 23.262674 23.262674h23.174621v-0.088054h588.659318c16.028925 0 29.023053 12.994129 29.023053 29.023054V495.491897h-0.076791v23.180764c0 12.844641 10.412914 23.257555 23.257555 23.257555s23.257555-10.412914 23.257555-23.257555V192.665525c0-36.755435-29.796087-66.550498-66.550498-66.550498H270.704017c-12.847713-0.001024-23.262675 10.413938-23.262674 23.261651z" fill="" p-id="2858"></path><path d="M251.308557 487.071464m-34.828483 0a34.828483 34.828483 0 1 0 69.656967 0 34.828483 34.828483 0 1 0-69.656967 0Z" fill="" p-id="2859"></path><path d="M470.927864 487.071464m-34.828483 0a34.828483 34.828483 0 1 0 69.656966 0 34.828483 34.828483 0 1 0-69.656966 0Z" fill="" p-id="2860"></path><path d="M690.548195 487.071464m-34.828484 0a34.828483 34.828483 0 1 0 69.656967 0 34.828483 34.828483 0 1 0-69.656967 0Z" fill="" p-id="2861"></path></svg>