<?xml version="1.0" standalone="no"?><!DOCTYPE svg PUBLIC "-//W3C//DTD SVG 1.1//EN" "http://www.w3.org/Graphics/SVG/1.1/DTD/svg11.dtd"><svg t="1718174697453" class="icon" viewBox="0 0 1024 1024" version="1.1" xmlns="http://www.w3.org/2000/svg" p-id="71592" xmlns:xlink="http://www.w3.org/1999/xlink" width="30" height="30"><path d="M819.413333 794.026667a332.8 332.8 0 0 0-71.509333-106.026667 332.8 332.8 0 0 0-147.413333-85.888 274.56 274.56 0 0 0 106.325333-66.218667 273.706667 273.706667 0 0 0 80.682667-194.688c0-73.514667-28.586667-142.72-80.682667-194.688a273.706667 273.706667 0 0 0-194.730667-80.725333c-73.472 0-142.677333 28.586667-194.688 80.725333a273.706667 273.706667 0 0 0-80.682666 194.688c0 73.514667 28.586667 142.677333 80.682666 194.688a274.56 274.56 0 0 0 106.282667 66.218667 332.8 332.8 0 0 0-147.413333 85.888 332.8 332.8 0 0 0-97.706667 235.904 35.968 35.968 0 1 0 72.021333 0c0-69.888 27.221333-135.594667 76.629334-185.002667a259.882667 259.882667 0 0 1 185.002666-76.586666c69.888 0 135.594667 27.178667 185.002667 76.586666a259.882667 259.882667 0 0 1 76.586667 185.002667 35.968 35.968 0 1 0 71.978666 0 335.488 335.488 0 0 0-26.368-129.92zM308.608 341.162667c0-112.213333 91.306667-203.392 203.392-203.392a203.648 203.648 0 0 1 203.392 203.392A203.562667 203.562667 0 0 1 512 544.597333a203.648 203.648 0 0 1-203.392-203.392z" fill="#7D4CED" opacity=".65" p-id="71593"></path></svg>