<?xml version="1.0" standalone="no"?><!DOCTYPE svg PUBLIC "-//W3C//DTD SVG 1.1//EN" "http://www.w3.org/Graphics/SVG/1.1/DTD/svg11.dtd"><svg t="1718004275655" class="icon" viewBox="0 0 1024 1024" version="1.1" xmlns="http://www.w3.org/2000/svg" p-id="29081" xmlns:xlink="http://www.w3.org/1999/xlink" width="30" height="30"><path d="M1024 109.714286v87.771428h-146.285714V109.714286z m-512 0v87.771428H0V109.714286z m512 365.714285v87.771429H512V475.428571z m-804.571429 0v87.771429H0V475.428571z m804.571429 351.085715v87.771428h-219.428571v-87.771428z m-512 0v87.771428H0v-87.771428z" fill="#ffffff" p-id="29082"></path><path d="M738.742857 80.457143a73.142857 73.142857 0 1 0 73.142857 73.142857 73.142857 73.142857 0 0 0-73.142857-73.142857z m0-80.457143a153.6 153.6 0 0 1 10.971429 306.468571h-10.971429A153.6 153.6 0 0 1 731.428571 0z m-438.857143 446.171429a73.142857 73.142857 0 1 0 73.142857 73.142857 73.142857 73.142857 0 0 0-73.142857-73.142857z m0-80.457143a153.6 153.6 0 0 1 10.971429 306.468571H299.885714A153.6 153.6 0 0 1 292.571429 365.714286z m424.228572 431.542857a73.142857 73.142857 0 1 0 73.142857 73.142857 73.142857 73.142857 0 0 0-73.142857-73.142857z m0-80.457143a153.6 153.6 0 0 1 10.971428 307.2H724.114286a153.6 153.6 0 0 1-10.971429-306.468571z" p-id="29083" fill="#ffffff"></path></svg>