<svg xmlns="http://www.w3.org/2000/svg" xmlns:xlink="http://www.w3.org/1999/xlink" fill="none" version="1.1" width="32" height="36" viewBox="0 0 32 36"><g><g><path d="M1.832889098781056e-15,6.06667L-5.821020901218945e-15,32.688199999999995C-6.034523901218945e-15,33.8504,1.4344499999999942,34.399,2.210049999999994,33.5334L7.627389999999994,27.4873C8.475419999999994,26.5408,9.686169999999995,26,10.956999999999995,26L26.933299999999992,26C29.731599999999993,26,31.999999999999993,23.7316,31.999999999999993,20.9333L31.999999999999993,6.06667C31.999999999999993,3.26842,29.731599999999993,1,26.933299999999992,1L5.066669999999994,1C2.268419999999994,0.9999999999999997,2.0042290987810553e-15,3.26842,1.832889098781056e-15,6.06667Z" fill="#DCEDE5" fill-opacity="1"/></g><g><path d="M9.36,10.208L9.36,21.3452L10.847999999999999,21.3452L10.847999999999999,10.208L9.36,10.208ZM9.504,7.376C10.304,8.24,11.376,9.424,11.888,10.128L13.04,9.28C12.512,8.608,11.392,7.456,10.608,6.65225L9.504,7.376ZM13.616,7.344L13.616,8.752L21.136,8.752L21.136,19.376C21.136,19.664,21.04,19.76,20.752000000000002,19.76C20.496000000000002,19.776,19.52,19.792,18.624000000000002,19.728C18.816000000000003,20.144,19.04,20.816,19.104,21.248C20.432000000000002,21.248,21.328,21.216,21.887999999999998,20.976C22.448,20.72,22.64,20.304,22.64,19.392L22.64,7.344L13.616,7.344ZM13.056000000000001,11.392L13.056000000000001,18.352L14.432,18.352L14.432,17.36L18.848,17.36L18.848,11.392L13.056000000000001,11.392ZM14.432,12.752L17.375999999999998,12.752L17.375999999999998,16L14.432,16L14.432,12.752Z" fill="#1C9756" fill-opacity="1"/></g></g></svg>