<?xml version="1.0" standalone="no"?><!DOCTYPE svg PUBLIC "-//W3C//DTD SVG 1.1//EN" "http://www.w3.org/Graphics/SVG/1.1/DTD/svg11.dtd"><svg t="1718175550006" class="icon" viewBox="0 0 1024 1024" version="1.1" xmlns="http://www.w3.org/2000/svg" p-id="75995" xmlns:xlink="http://www.w3.org/1999/xlink" width="30" height="30"><path d="M512.115 962C375.767 962 122.12 760.403 122.12 569.605V205.56a16.83 16.83 0 0 1 16.65-16.2l22.05-0.45a571.673 571.673 0 0 0 176.727-36.9 772.43 772.43 0 0 0 151.198-77.849l13.05-9a17.52 17.52 0 0 1 10.32-3.15 15.33 15.33 0 0 1 9.9 3.15l13.05 9.45a789.68 789.68 0 0 0 151.198 77.85A571.673 571.673 0 0 0 863.26 189.36l22.05 0.45a16.23 16.23 0 0 1 16.65 16.2v364.045C902.29 760.403 648.493 962 512.115 962zM842.11 248.009a639.442 639.442 0 0 1-177.298-40.05 866.089 866.089 0 0 1-152.698-76.948 899.449 899.449 0 0 1-152.518 76.799 639.442 639.442 0 0 1-177.298 40.199v321.596c0 149.398 220.947 332.546 329.996 332.546 42.3 0 124.648-34.2 205.647-108.899 78-71.999 124.649-155.698 124.649-223.647l-0.48-321.596zM480.645 630.804a29.34 29.34 0 0 1-42.3 0l-89.998-89.999a30 30 0 1 1 42.3-42.3l68.849 69 173.697-173.698a30 30 0 1 1 42.3 42.3z" p-id="75996" fill="#7D4CED"></path></svg>